<svg width="84" height="23" viewBox="0 0 84 23" fill="none" xmlns="http://www.w3.org/2000/svg">
<path d="M4.91 22.3C3.29 22.3 2.06 21.85 1.22 20.95C0.4 20.05 -0.01 18.76 -0.01 17.08V15.37H3.11V17.23C3.11 18.61 3.68 19.3 4.82 19.3C5.38 19.3 5.8 19.13 6.08 18.79C6.38 18.43 6.53 17.81 6.53 16.93V15.22C6.53 14.26 6.36 13.58 6.02 13.18C5.68 12.76 5.13 12.55 4.37 12.55H3.26V9.55H4.46C5.12 9.55 5.61 9.38 5.93 9.04C6.27 8.7 6.44 8.13 6.44 7.33V5.8C6.44 5.08 6.29 4.55 5.99 4.21C5.69 3.87 5.29 3.7 4.79 3.7C3.73 3.7 3.2 4.35 3.2 5.65V7.03H0.0800001V5.92C0.0800001 4.24 0.49 2.95 1.31 2.05C2.15 1.15 3.35 0.699999 4.91 0.699999C6.49 0.699999 7.69 1.15 8.51 2.05C9.33 2.93 9.74 4.21 9.74 5.89V6.64C9.74 7.78 9.55 8.7 9.17 9.4C8.79 10.08 8.2 10.57 7.4 10.87V10.93C8.26 11.25 8.88 11.77 9.26 12.49C9.64 13.21 9.83 14.13 9.83 15.25V17.11C9.83 18.79 9.41 20.08 8.57 20.98C7.75 21.86 6.53 22.3 4.91 22.3ZM16.1117 22.3C14.4917 22.3 13.2517 21.84 12.3917 20.92C11.5317 20 11.1017 18.7 11.1017 17.02V5.98C11.1017 4.3 11.5317 3 12.3917 2.08C13.2517 1.16 14.4917 0.699999 16.1117 0.699999C17.7317 0.699999 18.9717 1.16 19.8317 2.08C20.6917 3 21.1217 4.3 21.1217 5.98V17.02C21.1217 18.7 20.6917 20 19.8317 20.92C18.9717 21.84 17.7317 22.3 16.1117 22.3ZM16.1117 19.3C17.2517 19.3 17.8217 18.61 17.8217 17.23V5.77C17.8217 4.39 17.2517 3.7 16.1117 3.7C14.9717 3.7 14.4017 4.39 14.4017 5.77V17.23C14.4017 18.61 14.9717 19.3 16.1117 19.3ZM25.3634 11.26L21.7334 0.999999H25.2134L27.4334 7.78H27.4934L29.7734 0.999999H32.8934L29.2634 11.26L33.0734 22H29.5934L27.1934 14.68H27.1334L24.6734 22H21.5534L25.3634 11.26ZM37.8552 22.3C36.2552 22.3 35.0452 21.85 34.2252 20.95C33.4052 20.03 32.9952 18.72 32.9952 17.02V15.82H36.1152V17.26C36.1152 18.62 36.6852 19.3 37.8252 19.3C38.3852 19.3 38.8052 19.14 39.0852 18.82C39.3852 18.48 39.5352 17.94 39.5352 17.2C39.5352 16.32 39.3352 15.55 38.9352 14.89C38.5352 14.21 37.7952 13.4 36.7152 12.46C35.3552 11.26 34.4052 10.18 33.8652 9.22C33.3252 8.24 33.0552 7.14 33.0552 5.92C33.0552 4.26 33.4752 2.98 34.3152 2.08C35.1552 1.16 36.3752 0.699999 37.9752 0.699999C39.5552 0.699999 40.7452 1.16 41.5452 2.08C42.3652 2.98 42.7752 4.28 42.7752 5.98V6.85H39.6552V5.77C39.6552 5.05 39.5152 4.53 39.2352 4.21C38.9552 3.87 38.5452 3.7 38.0052 3.7C36.9052 3.7 36.3552 4.37 36.3552 5.71C36.3552 6.47 36.5552 7.18 36.9552 7.84C37.3752 8.5 38.1252 9.3 39.2052 10.24C40.5852 11.44 41.5352 12.53 42.0552 13.51C42.5752 14.49 42.8352 15.64 42.8352 16.96C42.8352 18.68 42.4052 20 41.5452 20.92C40.7052 21.84 39.4752 22.3 37.8552 22.3ZM46.2894 0.999999H50.7594L54.1794 22H50.8794L50.2794 17.83V17.89H46.5294L45.9294 22H42.8694L46.2894 0.999999ZM49.8894 15.04L48.4194 4.66H48.3594L46.9194 15.04H49.8894ZM54.8804 0.999999H58.1804V19H63.6104V22H54.8804V0.999999ZM64.2929 0.999999H73.2929V4H67.5929V9.55H72.1229V12.55H67.5929V19H73.2929V22H64.2929V0.999999ZM78.6399 22.3C77.0399 22.3 75.8299 21.85 75.0099 20.95C74.1899 20.03 73.7799 18.72 73.7799 17.02V15.82H76.8999V17.26C76.8999 18.62 77.4699 19.3 78.6099 19.3C79.1699 19.3 79.5899 19.14 79.8699 18.82C80.1699 18.48 80.3199 17.94 80.3199 17.2C80.3199 16.32 80.1199 15.55 79.7199 14.89C79.3199 14.21 78.5799 13.4 77.4999 12.46C76.1399 11.26 75.1899 10.18 74.6499 9.22C74.1099 8.24 73.8399 7.14 73.8399 5.92C73.8399 4.26 74.2599 2.98 75.0999 2.08C75.9399 1.16 77.1599 0.699999 78.7599 0.699999C80.3399 0.699999 81.5299 1.16 82.3299 2.08C83.1499 2.98 83.5599 4.28 83.5599 5.98V6.85H80.4399V5.77C80.4399 5.05 80.2999 4.53 80.0199 4.21C79.7399 3.87 79.3299 3.7 78.7899 3.7C77.6899 3.7 77.1399 4.37 77.1399 5.71C77.1399 6.47 77.3399 7.18 77.7399 7.84C78.1599 8.5 78.9099 9.3 79.9899 10.24C81.3699 11.44 82.3199 12.53 82.8399 13.51C83.3599 14.49 83.6199 15.64 83.6199 16.96C83.6199 18.68 83.1899 20 82.3299 20.92C81.4899 21.84 80.2599 22.3 78.6399 22.3Z" fill="#232323"/>
</svg>
