<svg width="22" height="14" viewBox="0 0 22 14" fill="none" xmlns="http://www.w3.org/2000/svg">
<path d="M21.1238 10.3704L21.1238 10.3704L13.0103 2.27376C11.9017 1.16517 10.0982 1.16533 8.98917 2.27434L0.876213 10.3704L1.2294 10.7243L0.876209 10.3704C0.625523 10.6206 0.499985 10.9498 0.499985 11.2773C0.499985 11.604 0.624784 11.9324 0.874355 12.1824C1.3742 12.6833 2.18538 12.6841 2.68624 12.1843L2.68626 12.1843L10.8002 4.08725L10.8005 4.08688C10.9107 3.9767 11.0898 3.97719 11.1989 4.08629L11.1992 4.08666L19.3137 12.1843L19.3137 12.1843C19.8146 12.6841 20.6258 12.6833 21.1256 12.1824L21.1238 10.3704ZM21.1238 10.3704C21.6247 10.8703 21.6255 11.6815 21.1257 12.1824L21.1238 10.3704Z" fill="white" stroke="white"/>
</svg>
