<svg width="20" height="20" viewBox="0 0 20 20" fill="none" xmlns="http://www.w3.org/2000/svg">
<path d="M19.9439 5.8767C19.8959 4.81185 19.7239 4.08327 19.4799 3.44676C19.2238 2.79023 18.8837 2.22978 18.3276 1.67734C17.7715 1.1249 17.2154 0.776621 16.5593 0.52442C15.9231 0.276221 15.195 0.108086 14.1308 0.060048C13.0626 0.0120096 12.7225 0 10.01 0C7.29342 0 6.95335 0.0120096 5.88914 0.060048C4.82493 0.108086 4.09678 0.280224 3.46065 0.52442C2.80052 0.780625 2.24041 1.1209 1.6883 1.67734C1.13619 2.23379 0.788118 2.79023 0.536068 3.44676C0.292019 4.08327 0.119984 4.81185 0.0719749 5.8767C0.0239653 6.94556 0.0119629 7.28583 0.0119629 10C0.0119629 12.7182 0.0239653 13.0584 0.0719749 14.1233C0.119984 15.1882 0.292019 15.9167 0.536068 16.5532C0.792119 17.2098 1.13219 17.7702 1.6883 18.3227C2.24041 18.8791 2.80052 19.2234 3.45665 19.4756C4.09278 19.7238 4.82092 19.8919 5.88514 19.94C6.95335 19.988 7.29342 20 10.006 20C12.7225 20 13.0626 19.988 14.1268 19.94C15.191 19.8919 15.9191 19.7198 16.5553 19.4756C17.2114 19.2194 17.7715 18.8791 18.3236 18.3227C18.8757 17.7662 19.2238 17.2098 19.4759 16.5532C19.7239 15.9167 19.8919 15.1882 19.9399 14.1233C19.988 13.0544 20 12.7142 20 10C20 7.28583 19.992 6.94155 19.9439 5.8767ZM18.1476 14.0432C18.1036 15.02 17.9395 15.5524 17.8035 15.9007C17.6235 16.3651 17.4034 16.7014 17.0514 17.0536C16.6993 17.4059 16.3672 17.6181 15.8991 17.8062C15.5471 17.9424 15.015 18.1065 14.0428 18.1505C12.9906 18.1986 12.6745 18.2106 10.002 18.2106C7.32943 18.2106 7.01336 18.1986 5.96115 18.1505C4.98496 18.1065 4.45285 17.9424 4.10478 17.8062C3.64069 17.6261 3.30462 17.4059 2.95255 17.0536C2.60048 16.7014 2.38844 16.3691 2.2004 15.9007C2.06437 15.5484 1.90034 15.016 1.85633 14.0432C1.80832 12.9904 1.79632 12.6741 1.79632 10C1.79632 7.32586 1.80832 7.00961 1.85633 5.95677C1.90034 4.97998 2.06437 4.44756 2.2004 4.09928C2.38044 3.63491 2.60048 3.29864 2.95255 2.94636C3.30462 2.59408 3.63669 2.38191 4.10478 2.19376C4.45685 2.05765 4.98896 1.89352 5.96115 1.84948C7.01336 1.80144 7.32943 1.78943 10.002 1.78943C12.6745 1.78943 12.9906 1.80144 14.0428 1.84948C15.019 1.89352 15.5511 2.05765 15.8991 2.19376C16.3632 2.3739 16.6993 2.59408 17.0514 2.94636C17.4034 3.29864 17.6155 3.63091 17.8035 4.09928C17.9395 4.45156 18.1036 4.98399 18.1476 5.95677C18.1956 7.00961 18.2076 7.32586 18.2076 10C18.2076 12.6741 18.1916 12.9904 18.1476 14.0432Z" fill="white"/>
<path d="M10.002 4.86035C7.16145 4.86035 4.86499 7.16219 4.86499 10.0005C4.86499 12.8427 7.16545 15.1406 10.002 15.1406C12.8386 15.1406 15.139 12.8347 15.139 10.0005C15.139 7.15819 12.8426 4.86035 10.002 4.86035ZM10.002 13.3351C8.16165 13.3351 6.66935 11.8419 6.66935 10.0005C6.66935 8.15899 8.16165 6.6658 10.002 6.6658C11.8424 6.6658 13.3347 8.15899 13.3347 10.0005C13.3347 11.8419 11.8424 13.3351 10.002 13.3351Z" fill="white"/>
<path d="M15.3392 5.86091C16.002 5.86091 16.5394 5.32322 16.5394 4.65995C16.5394 3.99667 16.002 3.45898 15.3392 3.45898C14.6763 3.45898 14.1389 3.99667 14.1389 4.65995C14.1389 5.32322 14.6763 5.86091 15.3392 5.86091Z" fill="white"/>
</svg>
