<svg width="63" height="63" viewBox="0 0 63 63" fill="none" xmlns="http://www.w3.org/2000/svg">
<path fill-rule="evenodd" clip-rule="evenodd" d="M11.7804 39.7738C12.7155 39.2363 13.9094 39.5586 14.447 40.4937C16.1732 43.4966 18.6318 46.0133 21.5935 47.8091C24.5552 49.605 27.9235 50.6214 31.3842 50.7637C32.462 50.808 33.2997 51.7176 33.2554 52.7954C33.2111 53.8732 32.3015 54.711 31.2237 54.6667C27.1039 54.4973 23.094 53.2872 19.5682 51.1493C16.0423 49.0114 13.1154 46.0153 11.0605 42.4405C10.5229 41.5053 10.8452 40.3114 11.7804 39.7738Z" fill="#222831"/>
<path fill-rule="evenodd" clip-rule="evenodd" d="M52.6728 20.773C51.7376 21.3106 50.5437 20.9883 50.0061 20.0531C48.2799 17.0503 45.8213 14.5336 42.8596 12.7377C39.8979 10.9419 36.5296 9.92544 33.0689 9.78317C31.9912 9.73886 31.1534 8.82924 31.1977 7.75147C31.242 6.6737 32.1516 5.83591 33.2294 5.88022C37.3493 6.04959 41.3591 7.25966 44.885 9.39757C48.4108 11.5355 51.3377 14.5316 53.3927 18.1064C53.9302 19.0415 53.6079 20.2354 52.6728 20.773Z" fill="#222831"/>
<path fill-rule="evenodd" clip-rule="evenodd" d="M15.625 7.8125C13.4676 7.8125 11.7188 9.56139 11.7188 11.7188C11.7188 13.8761 13.4676 15.625 15.625 15.625C17.7824 15.625 19.5312 13.8761 19.5312 11.7188C19.5312 9.56139 17.7824 7.8125 15.625 7.8125ZM7.8125 11.7188C7.8125 7.40403 11.3103 3.90625 15.625 3.90625C19.9397 3.90625 23.4375 7.40403 23.4375 11.7188C23.4375 16.0335 19.9397 19.5312 15.625 19.5312C11.3103 19.5312 7.8125 16.0335 7.8125 11.7188Z" fill="#312DFF"/>
<path fill-rule="evenodd" clip-rule="evenodd" d="M46.875 29.2969C44.7176 29.2969 42.9688 31.0458 42.9688 33.2031C42.9688 35.3605 44.7176 37.1094 46.875 37.1094C49.0324 37.1094 50.7812 35.3605 50.7812 33.2031C50.7812 31.0458 49.0324 29.2969 46.875 29.2969ZM39.0625 33.2031C39.0625 28.8884 42.5603 25.3906 46.875 25.3906C51.1897 25.3906 54.6875 28.8884 54.6875 33.2031C54.6875 37.5178 51.1897 41.0156 46.875 41.0156C42.5603 41.0156 39.0625 37.5178 39.0625 33.2031Z" fill="#312DFF"/>
<path fill-rule="evenodd" clip-rule="evenodd" d="M15.625 25.3906C11.3103 25.3906 7.8125 28.8884 7.8125 33.2031V35.1562C7.8125 36.2349 6.93806 37.1094 5.85938 37.1094C4.78069 37.1094 3.90625 36.2349 3.90625 35.1562V33.2031C3.90625 26.731 9.15291 21.4844 15.625 21.4844C22.0971 21.4844 27.3438 26.731 27.3438 33.2031V35.1562C27.3438 36.2349 26.4693 37.1094 25.3906 37.1094C24.3119 37.1094 23.4375 36.2349 23.4375 35.1562V33.2031C23.4375 28.8884 19.9397 25.3906 15.625 25.3906Z" fill="#312DFF"/>
<path fill-rule="evenodd" clip-rule="evenodd" d="M46.875 46.875C42.5603 46.875 39.0625 50.3728 39.0625 54.6875V56.6406C39.0625 57.7193 38.1881 58.5938 37.1094 58.5938C36.0307 58.5938 35.1562 57.7193 35.1562 56.6406V54.6875C35.1562 48.2154 40.4029 42.9688 46.875 42.9688C53.3471 42.9688 58.5938 48.2154 58.5938 54.6875V56.6406C58.5938 57.7193 57.7193 58.5938 56.6406 58.5938C55.5619 58.5938 54.6875 57.7193 54.6875 56.6406V54.6875C54.6875 50.3728 51.1897 46.875 46.875 46.875Z" fill="#312DFF"/>
</svg>
