<svg width="43" height="65" viewBox="0 0 43 65" fill="none" xmlns="http://www.w3.org/2000/svg">
<path fill-rule="evenodd" clip-rule="evenodd" d="M21.6152 19.75C15.3737 19.75 10.3139 24.8801 10.3139 31.2083C10.3139 34.826 11.9653 38.0513 14.5527 40.1543C14.9906 40.5102 15.2454 41.0483 15.2454 41.6173V46H27.1632V42.2339C27.1632 41.6138 27.4656 41.0337 27.971 40.6845C30.9602 38.6189 32.9166 35.145 32.9166 31.2083C32.9166 24.8801 27.8568 19.75 21.6152 19.75ZM6.61523 31.2083C6.61523 22.809 13.331 16 21.6152 16C29.8995 16 36.6152 22.809 36.6152 31.2083C36.6152 36.0726 34.3615 40.4026 30.8618 43.1841V47.875C30.8618 48.9105 30.0338 49.75 29.0125 49.75H13.3961C12.3747 49.75 11.5467 48.9105 11.5467 47.875V42.4816C8.52037 39.7012 6.61523 35.6798 6.61523 31.2083Z" fill="#222831"/>
<path fill-rule="evenodd" clip-rule="evenodd" d="M21.6152 34.75C22.9959 34.75 24.1152 35.5895 24.1152 36.625V47.875C24.1152 48.9105 22.9959 49.75 21.6152 49.75C20.2345 49.75 19.1152 48.9105 19.1152 47.875V36.625C19.1152 35.5895 20.2345 34.75 21.6152 34.75Z" fill="#222831"/>
<path fill-rule="evenodd" clip-rule="evenodd" d="M21.6152 31C20.6948 31 19.9486 31.8395 19.9486 32.875C19.9486 33.9105 20.6948 34.75 21.6152 34.75C22.5357 34.75 23.2819 33.9105 23.2819 32.875C23.2819 31.8395 22.5357 31 21.6152 31ZM16.6152 32.875C16.6152 29.7684 18.8538 27.25 21.6152 27.25C24.3767 27.25 26.6152 29.7684 26.6152 32.875C26.6152 35.9816 24.3767 38.5 21.6152 38.5C18.8538 38.5 16.6152 35.9816 16.6152 32.875Z" fill="#222831"/>
<path fill-rule="evenodd" clip-rule="evenodd" d="M10.3652 59.125C10.3652 56.0184 12.8836 53.5 15.9902 53.5H27.2402C30.3468 53.5 32.8652 56.0184 32.8652 59.125C32.8652 62.2316 30.3468 64.75 27.2402 64.75H15.9902C12.8836 64.75 10.3652 62.2316 10.3652 59.125ZM15.9902 57.25C14.9547 57.25 14.1152 58.0895 14.1152 59.125C14.1152 60.1605 14.9547 61 15.9902 61H27.2402C28.2758 61 29.1152 60.1605 29.1152 59.125C29.1152 58.0895 28.2758 57.25 27.2402 57.25H15.9902Z" fill="#222831"/>
<path fill-rule="evenodd" clip-rule="evenodd" d="M9.11523 51.625C9.11523 48.5184 11.5137 46 14.4724 46H28.7581C31.7168 46 34.1152 48.5184 34.1152 51.625C34.1152 54.7316 31.7168 57.25 28.7581 57.25H14.4724C11.5137 57.25 9.11523 54.7316 9.11523 51.625ZM14.4724 49.75C13.4862 49.75 12.6867 50.5895 12.6867 51.625C12.6867 52.6605 13.4862 53.5 14.4724 53.5H28.7581C29.7443 53.5 30.5438 52.6605 30.5438 51.625C30.5438 50.5895 29.7443 49.75 28.7581 49.75H14.4724Z" fill="#312DFF"/>
<path d="M1 9.05566L8.34399 15.957" stroke="black" stroke-width="2" stroke-linecap="round"/>
<path d="M41.4595 8.5L34.1155 15.4013" stroke="black" stroke-width="2" stroke-linecap="round"/>
<path d="M21.6152 11.0781V1.0003" stroke="black" stroke-width="2" stroke-linecap="round"/>
</svg>
