<svg width="63" height="63" viewBox="0 0 63 63" fill="none" xmlns="http://www.w3.org/2000/svg">
<path fill-rule="evenodd" clip-rule="evenodd" d="M42.9688 27.3438C42.9688 26.2651 43.8432 25.3906 44.9219 25.3906H54.6875C55.7662 25.3906 56.6406 26.2651 56.6406 27.3438V56.6406C56.6406 57.7193 55.7662 58.5938 54.6875 58.5938H44.9219C43.8432 58.5938 42.9688 57.7193 42.9688 56.6406V27.3438ZM46.875 29.2969V54.6875H52.7344V29.2969H46.875ZM23.4375 35.1562C23.4375 34.0776 24.3119 33.2031 25.3906 33.2031H35.1562C36.2349 33.2031 37.1094 34.0776 37.1094 35.1562V56.6406C37.1094 57.7193 36.2349 58.5938 35.1562 58.5938H25.3906C24.3119 58.5938 23.4375 57.7193 23.4375 56.6406V35.1562ZM27.3438 37.1094V54.6875H33.2031V37.1094H27.3438ZM3.90625 42.9688C3.90625 41.8901 4.78069 41.0156 5.85938 41.0156H15.625C16.7037 41.0156 17.5781 41.8901 17.5781 42.9688V56.6406C17.5781 57.7193 16.7037 58.5938 15.625 58.5938H5.85938C4.78069 58.5938 3.90625 57.7193 3.90625 56.6406V42.9688ZM7.8125 44.9219V54.6875H13.6719V44.9219H7.8125Z" fill="#222831"/>
<path fill-rule="evenodd" clip-rule="evenodd" d="M46.8749 5.85938C46.8749 4.78069 47.7493 3.90625 48.828 3.90625H56.6405C57.7192 3.90625 58.5936 4.78069 58.5936 5.85938V13.6719C58.5936 14.7506 57.7192 15.625 56.6405 15.625C55.5618 15.625 54.6874 14.7506 54.6874 13.6719V10.2087L40.36 22.9442C39.7121 23.52 38.7622 23.6 38.0272 23.1406L23.379 13.9855L6.80776 23.1917C5.86483 23.7156 4.67576 23.3758 4.1519 22.4329C3.62805 21.49 3.96778 20.3009 4.91072 19.777L22.4888 10.0114C23.1101 9.66626 23.8698 9.68583 24.4725 10.0625L38.8576 19.0532L51.5034 7.8125H48.828C47.7493 7.8125 46.8749 6.93806 46.8749 5.85938Z" fill="#312DFF"/>
</svg>
