<svg width="40" height="40" viewBox="0 0 40 40" fill="none" xmlns="http://www.w3.org/2000/svg">
<rect width="40" height="40" rx="20" fill="#312DFF"/>
<path d="M26.9688 17.3438C26.9688 15.6281 26.2872 13.9828 25.0741 12.7697C23.861 11.5565 22.2156 10.875 20.5 10.875C18.7844 10.875 17.139 11.5565 15.9259 12.7697C14.7128 13.9828 14.0312 15.6281 14.0312 17.3438C14.0312 19.9974 16.1544 23.456 20.5 27.5989C24.8456 23.456 26.9688 19.9974 26.9688 17.3438ZM20.5 29.5625C15.2287 24.7713 12.5938 20.6974 12.5938 17.3438C12.5938 15.2469 13.4267 13.2359 14.9094 11.7532C16.3921 10.2705 18.4031 9.4375 20.5 9.4375C22.5969 9.4375 24.6079 10.2705 26.0906 11.7532C27.5733 13.2359 28.4062 15.2469 28.4062 17.3438C28.4062 20.6974 25.7713 24.7713 20.5 29.5625Z" fill="white"/>
<path d="M20.5 19.5C21.0719 19.5 21.6203 19.2728 22.0247 18.8684C22.4291 18.4641 22.6562 17.9156 22.6562 17.3438C22.6562 16.7719 22.4291 16.2234 22.0247 15.8191C21.6203 15.4147 21.0719 15.1875 20.5 15.1875C19.9281 15.1875 19.3797 15.4147 18.9753 15.8191C18.5709 16.2234 18.3438 16.7719 18.3438 17.3438C18.3438 17.9156 18.5709 18.4641 18.9753 18.8684C19.3797 19.2728 19.9281 19.5 20.5 19.5ZM20.5 20.9375C19.5469 20.9375 18.6328 20.5589 17.9588 19.8849C17.2849 19.211 16.9062 18.2969 16.9062 17.3438C16.9062 16.3906 17.2849 15.4765 17.9588 14.8026C18.6328 14.1286 19.5469 13.75 20.5 13.75C21.4531 13.75 22.3672 14.1286 23.0412 14.8026C23.7151 15.4765 24.0938 16.3906 24.0938 17.3438C24.0938 18.2969 23.7151 19.211 23.0412 19.8849C22.3672 20.5589 21.4531 20.9375 20.5 20.9375Z" fill="white"/>
</svg>
